<?xml version="1.0" encoding="UTF-8"?>
<svg xmlns="http://www.w3.org/2000/svg" xmlns:xlink="http://www.w3.org/1999/xlink" width="512pt" height="512pt" viewBox="0 0 512 512" version="1.1">
<g fill="{{ $.Site.Params.Colors.primary }}" id="surface1">
<path d="M 444.375 98.796875 C 442.851562 99.648438 441.679688 100.976562 441.359375 102.117188 C 441.226562 102.683594 440.851562 105.148438 440.535156 107.613281 C 440.238281 110.078125 438.851562 121.269531 437.464844 132.457031 C 436.078125 143.644531 434.90625 152.839844 434.878906 152.890625 C 434.828125 152.984375 433.546875 153.457031 432 154.074219 C 428.828125 155.210938 408.773438 163.367188 403.839844 165.453125 C 399.601562 167.253906 397.332031 168.628906 396.613281 169.859375 C 395.867188 171.046875 395.867188 171.378906 396.507812 172.515625 C 397.894531 174.980469 400.132812 174.839844 409.839844 171.613281 C 415.308594 169.8125 432.667969 166.019531 432.988281 166.542969 C 433.066406 166.730469 432.585938 171.804688 431.921875 177.871094 C 430.265625 192.804688 429.867188 197.878906 427.972656 229.214844 C 426.453125 254.054688 426.320312 257.328125 426.214844 269.75 C 426.054688 284.917969 426.375 294.449219 427.332031 304.59375 C 428.480469 316.445312 429.785156 321.753906 433.066406 327.632812 C 434.933594 331 435.734375 332.089844 437.601562 333.652344 C 440.425781 336.070312 442.292969 336.734375 446 336.734375 C 451.707031 336.6875 455.039062 334.03125 459.601562 325.878906 C 466.292969 313.933594 470.640625 299.332031 471.121094 287.289062 C 471.464844 278.1875 469.441406 273.445312 464.132812 270.886719 C 461.945312 269.84375 453.945312 269.417969 451.679688 270.222656 C 447.441406 271.691406 444.960938 275.769531 446.640625 278.472656 C 447.652344 280.128906 452.960938 280.367188 456.1875 278.945312 C 456.535156 278.753906 457.464844 278.804688 458.292969 278.992188 C 459.574219 279.277344 459.839844 279.515625 460.292969 280.792969 C 462.1875 286.386719 458.933594 302.507812 453.574219 313.789062 C 452.054688 317.0625 448.613281 322.511719 447.359375 323.648438 C 446.640625 324.3125 446.558594 324.265625 445.839844 323.035156 C 443.867188 319.667969 442.613281 313.078125 441.546875 300.324219 C 440.988281 293.878906 440.933594 291.507812 440.960938 275.4375 C 440.960938 258.132812 440.988281 257.28125 441.945312 242.488281 C 442.480469 234.144531 443.28125 221.25 443.734375 213.808594 C 444.1875 206.363281 444.71875 197.925781 444.960938 195.082031 C 445.519531 188.019531 448.265625 162.9375 448.507812 162.464844 C 448.773438 161.992188 460.054688 158.578125 465.464844 157.394531 C 467.8125 156.871094 472.800781 156.207031 476.535156 155.96875 C 480.265625 155.6875 484.132812 155.210938 485.121094 154.976562 C 487.09375 154.40625 489.761719 152.367188 490.640625 150.707031 C 492.453125 147.246094 489.519531 143.3125 484.238281 142.175781 C 478.691406 140.988281 463.546875 143.835938 453.066406 148.054688 C 451.148438 148.8125 450.238281 149 450.1875 148.667969 C 450.160156 148.386719 451.066406 140.042969 452.214844 130.132812 C 455.28125 104.105469 455.308594 103.773438 454.105469 101.5 C 452.90625 99.222656 451.492188 98.417969 448.398438 98.277344 C 446.480469 98.179688 445.09375 98.371094 444.375 98.796875 Z M 444.375 98.796875 "/>
<path d="M 99.066406 104.628906 C 95.894531 105.480469 91.921875 108.5625 89.039062 112.402344 C 86.828125 115.292969 82.292969 123.449219 80.453125 127.808594 C 76.105469 138.097656 71.625 152.605469 68.933594 165.214844 C 62.507812 195.035156 60.214844 210.015625 57.734375 238.03125 L 56.828125 248.273438 L 53.28125 254.339844 C 39.171875 278.519531 32.773438 292.835938 26.398438 314.453125 C 23.199219 325.355469 21.8125 332.5625 20.933594 343.136719 C 19.972656 354.417969 20.933594 365.699219 23.148438 369.636719 C 25.253906 373.285156 29.574219 375.609375 31.09375 373.855469 C 32.640625 372.007812 32.828125 368.546875 31.734375 361.71875 C 30.667969 354.988281 30.746094 348.066406 32 337.207031 C 32.933594 329.292969 34.453125 322.65625 38.132812 310.519531 C 42.132812 297.292969 46.507812 286.054688 52.667969 273.113281 C 54.265625 269.75 55.625 267 55.652344 267.046875 C 55.679688 267.09375 55.574219 269.605469 55.386719 272.59375 C 54.960938 280.320312 54.988281 317.582031 55.414062 326.164062 C 57.359375 364.894531 60.667969 374.519531 72.078125 374.519531 C 73.972656 374.519531 75.945312 374.234375 77.039062 373.808594 C 79.148438 372.953125 82.320312 369.871094 84.398438 366.695312 C 87.121094 362.621094 89.679688 354.085938 92.160156 341.050781 C 92.828125 337.445312 93.441406 334.410156 93.464844 334.316406 C 93.492188 334.269531 94.453125 334.648438 95.601562 335.21875 C 98.453125 336.59375 104.132812 336.355469 106.425781 334.742188 C 109.734375 332.46875 113.386719 327.160156 117.011719 319.289062 C 117.972656 317.203125 118.90625 315.210938 119.066406 314.878906 C 119.332031 314.359375 119.519531 314.644531 120.078125 316.300781 C 121.199219 319.621094 123.039062 323.035156 124.507812 324.410156 C 126.214844 326.066406 128.878906 327.109375 131.519531 327.109375 L 133.574219 327.109375 L 133.707031 329.578125 C 133.785156 330.949219 133.972656 334.316406 134.132812 337.066406 C 134.535156 344.082031 135.148438 349.722656 135.734375 351.761719 C 136.453125 354.226562 138.691406 357.6875 140.1875 358.589844 C 141.652344 359.492188 143.546875 359.585938 145.253906 358.777344 C 146.746094 358.117188 148.292969 355.460938 148.960938 352.425781 C 149.441406 350.199219 149.414062 348.019531 148.773438 339.199219 C 148.054688 328.914062 148.1875 301.464844 149.09375 274.015625 L 149.386719 265.246094 L 150.535156 260.929688 C 152.078125 255.050781 154.585938 247.417969 157.09375 240.828125 C 159.09375 235.566406 163.945312 224.804688 165.441406 222.339844 L 166.160156 221.203125 L 166 223.289062 C 165.546875 229.214844 165.148438 232.960938 163.171875 248.746094 C 159.972656 274.679688 159.28125 283.96875 158.535156 311.464844 C 158.425781 314.738281 158.1875 321.847656 157.972656 327.347656 C 157.785156 332.800781 157.601562 339.105469 157.601562 341.285156 C 157.601562 345.222656 157.601562 345.269531 158.558594 346.832031 C 159.945312 349.203125 161.839844 350.007812 165.308594 349.773438 C 167.652344 349.628906 168.347656 349.441406 169.441406 348.445312 C 171.785156 346.359375 171.785156 346.3125 172.1875 332.707031 C 172.800781 311.085938 174.132812 283.117188 175.039062 272.164062 C 175.332031 268.609375 175.707031 266.714844 176.800781 262.683594 C 180.214844 250.167969 184.132812 239.40625 187.785156 232.535156 C 189.121094 230.066406 190.265625 228.078125 190.320312 228.21875 C 190.535156 228.597656 189.734375 234.570312 187.441406 250.074219 C 184.746094 268.324219 183.414062 279.371094 182.425781 291.792969 C 181.171875 307.484375 180.960938 313.695312 180.933594 336.164062 C 180.933594 359.492188 180.773438 357.878906 183.066406 359.773438 C 186.828125 362.902344 192.453125 361.765625 194.507812 357.453125 L 195.199219 355.933594 L 195.199219 341.664062 C 195.199219 303.785156 196.214844 286.199219 200.132812 255.050781 C 202.320312 237.699219 202.640625 234.570312 202.828125 229.023438 C 203.226562 218.546875 201.011719 213.949219 195.386719 213.429688 C 190.238281 212.953125 186.347656 216.128906 180.933594 225.234375 L 179.066406 228.410156 L 179.148438 226.085938 C 179.28125 223.050781 178.773438 218.027344 178.078125 215.136719 C 176.507812 208.640625 171.199219 205.035156 165.734375 206.839844 C 161.441406 208.261719 158.988281 211.292969 154.960938 220.207031 C 153.546875 223.335938 152.132812 226.511719 151.8125 227.320312 L 151.226562 228.742188 L 151.386719 226.605469 C 151.464844 225.421875 152 220.300781 152.613281 215.230469 C 154.105469 202.289062 154.078125 203.140625 153.09375 201.527344 C 150.238281 196.789062 142.292969 197.453125 140.507812 202.621094 C 139.308594 206.078125 137.492188 219.496094 136.691406 230.875 C 135.332031 249.980469 134.1875 275.675781 133.839844 295.109375 C 133.652344 304.828125 133.386719 311.988281 133.226562 312.320312 C 132.878906 313.171875 132.214844 310.851562 131.601562 306.773438 C 130.851562 301.605469 130.71875 294.542969 131.09375 278.042969 C 131.652344 254.007812 132.078125 245.191406 133.625 226.179688 C 134.613281 213.761719 134.613281 213.144531 133.601562 211.4375 C 130.933594 206.980469 123.171875 207.453125 121.441406 212.148438 C 120.933594 213.523438 120.214844 219.023438 119.332031 228.265625 C 117.894531 243.292969 117.414062 253.441406 117.039062 276.386719 L 116.71875 295.585938 L 114.292969 300.089844 C 112.960938 302.554688 110.375 307.675781 108.535156 311.417969 C 105.464844 317.675781 102.292969 323.320312 101.867188 323.320312 C 101.546875 323.320312 100.320312 317.960938 100 315.117188 C 99.171875 307.816406 99.199219 295.585938 100.132812 271.40625 C 100.800781 253.914062 101.679688 240.640625 102.988281 227.980469 C 103.519531 222.765625 103.519531 222.4375 103.09375 221.25 C 101.171875 216.128906 92.1875 216.273438 90.746094 221.488281 C 89.625 225.421875 87.867188 239.21875 86.828125 252.300781 C 85.519531 268.515625 84.507812 299.234375 85.039062 307.625 C 85.332031 312.414062 86.078125 317.960938 86.933594 321.707031 C 87.253906 323.082031 87.171875 323.601562 85.332031 330.949219 C 81.28125 347.210938 79.679688 352 76.746094 356.742188 L 75.066406 359.441406 L 74.480469 357.121094 C 73.679688 354.132812 72.933594 348.300781 72.292969 340.148438 C 71.28125 327.585938 71.066406 320.472656 71.066406 298.429688 C 71.066406 275.957031 71.199219 271.597656 72.667969 248.507812 L 73.308594 238.363281 L 75.519531 234.289062 C 79.972656 225.992188 89.8125 206.742188 92.640625 200.769531 C 98.773438 187.6875 103.601562 172.65625 108.078125 152.652344 C 111.066406 139.378906 112.535156 129.234375 112.535156 121.835938 C 112.535156 115.246094 111.894531 111.691406 110.160156 108.941406 C 108.292969 105.957031 106.160156 104.675781 102.667969 104.535156 C 101.121094 104.4375 99.519531 104.484375 99.066406 104.628906 Z M 102.425781 116.242188 C 103.011719 118.519531 103.066406 119.417969 103.039062 125.15625 C 103.039062 132.742188 102.347656 138.621094 100.265625 149.570312 C 96.453125 169.386719 91.441406 185.789062 84.988281 199.492188 C 82.054688 205.652344 74.851562 219.96875 74.746094 219.78125 C 74.613281 219.542969 75.734375 208.496094 76.691406 200.582031 C 77.785156 191.480469 79.894531 178.300781 82.105469 166.398438 C 85.839844 146.441406 91.519531 128 96.292969 120.128906 C 97.945312 117.429688 100.851562 113.96875 101.625 113.824219 C 101.734375 113.777344 102.078125 114.914062 102.425781 116.242188 Z M 102.425781 116.242188 "/>
<path d="M 390.746094 105.90625 C 388.800781 107.046875 388.105469 108.277344 387.441406 111.785156 C 387.121094 113.539062 385.625 120.082031 384.132812 126.339844 C 380.078125 143.21875 378.480469 151.371094 377.464844 160.570312 C 377.09375 163.746094 377.09375 164.789062 377.332031 166.164062 C 377.945312 169.480469 381.066406 171.566406 384.535156 170.949219 C 386.535156 170.570312 388.828125 168.816406 389.28125 167.253906 C 389.441406 166.636719 390 163.269531 390.535156 159.761719 C 391.839844 151.230469 393.011719 145.636719 397.066406 128.710938 C 401.28125 111.074219 401.332031 110.839844 400.640625 109.132812 C 400.347656 108.421875 399.519531 107.332031 398.773438 106.667969 C 397.679688 105.671875 397.039062 105.480469 394.667969 105.386719 C 392.851562 105.292969 391.464844 105.480469 390.746094 105.90625 Z M 390.746094 105.90625 "/>
<path d="M 342 114.109375 C 330.691406 118.375 320.800781 138.523438 315.464844 168.152344 C 313.464844 179.246094 312.105469 190.054688 311.359375 200.535156 C 310.71875 209.539062 310.132812 225.707031 310.132812 234.191406 L 310.132812 241.730469 L 309.332031 242.820312 C 308.90625 243.390625 307.039062 246.898438 305.199219 250.59375 C 303.359375 254.339844 298.878906 262.449219 295.253906 268.707031 C 282.988281 289.800781 280.027344 294.164062 276.054688 297.054688 C 274.640625 298.097656 274.507812 298.097656 274.054688 297.339844 C 272.105469 294.210938 271.332031 287.90625 271.546875 276.667969 C 271.734375 266.003906 272.425781 259.367188 275.332031 240.59375 C 278.132812 222.386719 280.453125 213.191406 285.28125 201.007812 C 287.171875 196.21875 292.507812 186.3125 293.199219 186.3125 C 293.707031 186.3125 293.734375 188.398438 293.199219 194.371094 C 292.425781 203.332031 290.558594 213.855469 286.691406 230.589844 C 285.519531 235.757812 284.535156 240.546875 284.535156 241.160156 C 284.535156 243.675781 286.988281 246.28125 290.078125 247.039062 C 292.347656 247.609375 295.011719 246.945312 297.011719 245.238281 L 298.480469 244.007812 L 300.1875 237.652344 C 304.558594 221.34375 308.078125 202.429688 308.773438 191.382812 C 309.464844 180.433594 306.960938 174.363281 300.347656 171.046875 C 297.679688 169.71875 293.359375 169.625 290.292969 170.855469 C 281.308594 174.460938 273.359375 187.734375 266.988281 209.683594 C 266.105469 212.71875 265.332031 215.417969 265.28125 215.703125 C 265.226562 216.035156 263.921875 216.414062 262.265625 216.652344 C 260.640625 216.890625 258.71875 217.222656 257.972656 217.363281 L 256.585938 217.648438 L 255.492188 213.570312 C 253.066406 204.753906 247.707031 197.546875 241.121094 194.324219 C 238.558594 193.089844 231.8125 192.570312 228.800781 193.375 C 222.265625 195.175781 215.921875 202.335938 213.839844 210.25 C 212.746094 214.375 212.507812 219.117188 213.199219 222.863281 C 213.839844 226.179688 216.105469 230.210938 218.480469 232.25 C 223.8125 236.753906 233.519531 237.417969 243.039062 233.90625 L 243.8125 233.625 L 243.625 237.796875 C 242.90625 253.675781 239.707031 270.078125 234.90625 282.546875 C 231.011719 292.691406 224.773438 301.890625 221.253906 302.742188 C 220.054688 303.027344 220 302.980469 218.71875 300.65625 C 218.027344 299.332031 217.066406 297.007812 216.640625 295.492188 C 215.921875 292.929688 215.867188 292.3125 215.785156 286.339844 C 215.652344 277.949219 216.214844 271.027344 217.921875 259.320312 C 220 245.144531 219.945312 245.761719 219.332031 243.769531 C 217.519531 237.84375 208.214844 236.941406 205.414062 242.394531 C 204.851562 243.484375 202.292969 256.757812 201.332031 263.441406 C 199.761719 274.679688 199.253906 287.527344 200.132812 293.6875 C 201.039062 299.898438 202.878906 304.828125 206.054688 309.617188 C 210.214844 315.921875 217.839844 318.339844 226.667969 316.113281 C 233.761719 314.359375 240.667969 306.773438 246.585938 294.210938 C 250.535156 285.820312 253.066406 277.617188 255.171875 266.191406 C 257.359375 254.4375 258.105469 246.421875 258.132812 235.519531 L 258.132812 229.074219 L 259.945312 228.742188 C 260.933594 228.550781 261.945312 228.3125 262.238281 228.171875 C 262.878906 227.839844 262.90625 227.507812 260.71875 242.726562 C 258.105469 260.882812 257.734375 265.148438 257.734375 276.859375 C 257.734375 285.535156 257.785156 286.957031 258.347656 290.277344 C 259.226562 295.726562 260.265625 299.046875 262.054688 302.03125 C 264.667969 306.488281 268.027344 308.8125 272.667969 309.378906 C 278.292969 310.09375 284.105469 306.300781 289.679688 298.335938 C 290.746094 296.863281 295.867188 287.953125 301.121094 278.566406 L 310.613281 261.5 L 310.773438 264.058594 C 310.851562 265.480469 311.039062 268.894531 311.226562 271.644531 C 311.894531 283.257812 313.707031 296.863281 316.453125 311.230469 C 319.332031 326.210938 320.238281 328.914062 322.800781 330.191406 C 325.011719 331.28125 326.453125 331.472656 328.640625 330.949219 C 332.214844 330.050781 334.90625 327.253906 335.359375 323.980469 C 335.546875 322.75 334.71875 318.105469 333.867188 315.449219 C 333.011719 312.792969 329.625 293.6875 328.773438 286.71875 L 328.453125 284.019531 L 330 279.136719 C 332.027344 272.6875 334.265625 266.761719 336.773438 261.214844 C 338.988281 256.332031 347.28125 241.304688 347.761719 241.304688 C 348.1875 241.304688 347.945312 244.148438 346.265625 259.082031 C 343.226562 285.773438 341.894531 300.136719 341.199219 312.890625 C 340.71875 322.371094 340.1875 347.921875 340.320312 357.640625 L 340.398438 365.132812 L 341.519531 366.886719 C 342.988281 369.207031 344.105469 369.824219 347.519531 370.109375 C 350.988281 370.441406 353.519531 369.304688 355.011719 366.792969 C 356.214844 364.800781 356.214844 364.800781 356.398438 342.28125 C 356.667969 312.082031 357.199219 303.359375 361.253906 265.246094 C 362.933594 249.410156 363.011719 248.320312 363.039062 241.066406 C 363.066406 231.394531 362.746094 229.121094 360.71875 225.46875 C 358.71875 221.820312 357.039062 220.777344 353.199219 220.777344 C 349.492188 220.824219 347.679688 221.773438 344.398438 225.5625 C 338.851562 231.964844 330.507812 246.613281 327.519531 255.242188 L 326.535156 258.085938 L 326.347656 255.714844 C 326.265625 254.4375 326.105469 248.792969 326 243.199219 L 325.8125 233.007812 L 326.988281 231.492188 C 332.585938 224.191406 341.171875 205.605469 350.160156 181.429688 C 356.425781 164.597656 358.828125 153.742188 359.332031 140.089844 C 359.761719 128.378906 357.332031 118.851562 353.066406 115.53125 C 352.265625 114.867188 350.960938 114.15625 350.1875 113.824219 C 348.265625 113.113281 344.265625 113.207031 342 114.109375 Z M 347.148438 126.765625 C 348.507812 129.375 348.960938 130.988281 349.464844 134.730469 C 350.988281 146.300781 348.558594 160.425781 341.867188 178.726562 C 336.613281 193.042969 329.921875 209.539062 326.640625 216.179688 L 325.839844 217.835938 L 326 211.675781 C 326.613281 189.675781 328.851562 170.429688 332.773438 154.074219 C 334.558594 146.632812 337.972656 136.960938 340.613281 131.933594 C 342.320312 128.664062 345.148438 124.679688 345.734375 124.679688 C 345.921875 124.679688 346.558594 125.628906 347.148438 126.765625 Z M 235.386719 205.273438 C 236.90625 206.460938 238.71875 208.734375 239.734375 210.632812 C 240.640625 212.289062 242.667969 219.117188 242.667969 220.445312 C 242.667969 221.15625 242.078125 221.488281 239.011719 222.484375 C 232.90625 224.519531 231.464844 224.804688 229.574219 224.285156 C 228.132812 223.859375 227.761719 223.527344 227.148438 222.246094 C 225.09375 217.980469 227.414062 209.113281 231.492188 205.605469 C 233.226562 204.136719 233.894531 204.042969 235.386719 205.273438 Z M 235.386719 205.273438 "/>
<path d="M 65.679688 127.382812 C 63.652344 130.558594 55.066406 155.117188 51.359375 168.296875 C 48.105469 179.957031 45.867188 191.714844 45.867188 197.214844 C 45.867188 199.871094 46.851562 202.808594 48.425781 204.894531 C 49.546875 206.363281 49.734375 206.269531 51.652344 203.519531 C 53.414062 201.007812 54.078125 198.589844 54.398438 193.515625 C 54.773438 187.636719 55.574219 180.386719 56.507812 174.410156 C 57.945312 165.40625 61.601562 148.953125 64.851562 137.007812 C 66.878906 129.515625 67.253906 127.808594 67.011719 126.765625 C 66.828125 125.820312 66.640625 125.914062 65.679688 127.382812 Z M 65.679688 127.382812 "/>
<path d="M 500.054688 139.945312 C 495.492188 140.753906 492.878906 145.207031 494.585938 149.238281 C 494.878906 149.949219 495.8125 151.136719 496.640625 151.894531 C 498 153.171875 498.480469 153.316406 501.199219 153.503906 C 503.734375 153.695312 504.507812 153.550781 506.105469 152.699219 C 508.507812 151.417969 509.867188 149.285156 509.867188 146.820312 C 509.867188 142.03125 505.546875 139 500.054688 139.945312 Z M 500.054688 139.945312 "/>
<path d="M 408.054688 180.148438 C 402.71875 182.660156 397.785156 190.386719 394.773438 201.101562 C 392.480469 209.207031 390.613281 220.398438 388.960938 236.136719 C 387.171875 253.011719 386.398438 264.769531 385.734375 285.867188 C 385.519531 292.503906 385.199219 302.078125 385.039062 307.152344 L 384.691406 316.300781 L 378.398438 327.539062 C 369.652344 343.085938 366.667969 350.152344 362.667969 364.800781 C 359.28125 377.222656 356.851562 388.742188 355.972656 396.5625 C 355.546875 400.449219 355.546875 408.367188 355.972656 411.496094 C 357.492188 422.542969 363.121094 433.304688 368.667969 435.910156 C 370.667969 436.8125 374.238281 436.8125 376.667969 435.910156 C 381.652344 434.015625 386.878906 427.140625 391.359375 416.519531 C 392.878906 412.917969 395.734375 402.726562 396.773438 397.035156 C 398.054688 390.210938 399.066406 380.113281 399.894531 366.222656 C 400.214844 360.675781 400.746094 332.136719 400.800781 316.585938 L 400.800781 312.460938 L 404.613281 308.007812 C 409.359375 302.410156 413.734375 298.191406 418.558594 294.449219 C 421.492188 292.171875 422.535156 291.082031 423.386719 289.515625 C 424.773438 286.957031 424.960938 285.867188 424.265625 284.300781 C 423.148438 281.789062 418.667969 280.605469 414.746094 281.789062 C 411.972656 282.644531 409.171875 284.632812 404.71875 288.996094 C 402.988281 290.703125 401.492188 292.03125 401.441406 291.886719 C 401.386719 291.792969 401.414062 288.332031 401.492188 284.253906 L 401.679688 276.8125 L 403.921875 271.976562 C 407.945312 263.300781 412.375 250.832031 414.746094 241.492188 C 419.601562 222.4375 422.800781 197.546875 421.492188 189.488281 C 420.1875 181.523438 414.160156 177.304688 408.054688 180.148438 Z M 412.425781 197.453125 C 412.214844 205.605469 410.640625 216.273438 407.839844 229.167969 C 406.453125 235.472656 403.492188 246.28125 403.28125 245.855469 C 403.121094 245.570312 404.453125 228.3125 405.09375 222.339844 C 406.535156 208.972656 408.71875 198.117188 411.226562 192 C 412.078125 189.914062 412.078125 189.914062 412.347656 191.050781 C 412.480469 191.714844 412.507812 194.558594 412.425781 197.453125 Z M 384.507812 348.445312 C 384.105469 366.839844 383.121094 381.0625 381.332031 393.765625 C 379.785156 404.765625 377.519531 412.730469 373.945312 419.601562 L 372.425781 422.542969 L 371.464844 420.597656 C 367.652344 412.871094 367.066406 404.480469 369.308594 388.882812 C 372.160156 369.019531 375.226562 357.167969 380.640625 345.125 C 382.398438 341.238281 384.558594 336.972656 384.691406 337.207031 C 384.71875 337.257812 384.640625 342.328125 384.507812 348.445312 Z M 384.507812 348.445312 "/>
<path d="M 381.199219 348.964844 C 380.480469 350.53125 379.28125 353.46875 378.585938 355.460938 L 377.308594 359.109375 L 379.121094 359.679688 C 380.105469 360.011719 381.253906 360.390625 381.652344 360.484375 C 382.347656 360.722656 382.375 360.675781 382.535156 357.546875 C 382.613281 355.792969 382.800781 352.804688 382.960938 350.910156 C 383.09375 349.011719 383.199219 347.117188 383.199219 346.738281 C 383.199219 345.363281 382.507812 346.167969 381.199219 348.964844 Z M 381.199219 348.964844 "/>
<path d="M 375.492188 187.6875 C 372.773438 189.394531 372.132812 190.816406 371.761719 196.125 C 371.625 197.878906 370.851562 204.042969 370.054688 209.777344 C 367.546875 227.648438 364.828125 251.78125 364.132812 262.636719 C 362.613281 285.394531 365.121094 295.441406 373.199219 299.1875 C 375.945312 300.46875 382.878906 300.324219 383.652344 298.949219 C 383.8125 298.667969 384.238281 286.71875 384.105469 286.386719 C 384.054688 286.292969 383.171875 286.765625 382.132812 287.429688 L 380.265625 288.664062 L 379.894531 287.382812 C 378.535156 282.59375 378.613281 269.464844 380.160156 253.394531 C 381.28125 241.445312 383.359375 223.574219 385.199219 209.777344 C 386.1875 202.570312 386.988281 195.648438 386.988281 194.371094 C 387.039062 191.335938 386.558594 190.152344 384.640625 188.445312 C 383.226562 187.210938 382.746094 187.070312 380 186.925781 C 377.492188 186.785156 376.667969 186.925781 375.492188 187.6875 Z M 375.492188 187.6875 "/>
<path d="M 481.867188 270.648438 C 481.574219 271.691406 481.332031 273.351562 481.332031 274.347656 C 481.308594 277.855469 480.535156 286.625 479.839844 291.082031 C 478.160156 301.652344 475.011719 313.648438 471.148438 324.125 C 468.640625 331 468.320312 332.5625 468.933594 335.40625 C 469.148438 336.496094 469.574219 337.777344 469.839844 338.203125 C 470.265625 338.914062 470.425781 338.914062 471.761719 338.203125 C 473.761719 337.113281 475.574219 335.453125 476.851562 333.367188 C 479.441406 329.246094 482.851562 312.320312 484.027344 297.8125 C 484.425781 292.835938 483.894531 272.640625 483.308594 270.601562 C 482.71875 268.609375 482.453125 268.609375 481.867188 270.648438 Z M 481.867188 270.648438 "/>
<path d="M 14.375 312.082031 C 12.480469 314.3125 8.078125 328.058594 5.921875 338.488281 C 1.8125 358.164062 1.332031 370.632812 4 385.421875 C 6.1875 397.367188 9.867188 406.613281 14.453125 411.6875 C 20.933594 418.796875 31.519531 422.449219 43.894531 421.734375 C 57.226562 421.023438 63.734375 419.222656 93.066406 408.128906 C 98.558594 406.042969 106.480469 403.058594 110.667969 401.539062 C 114.851562 400.023438 121.625 397.464844 125.734375 395.898438 C 162.078125 382.054688 191.386719 371.4375 204.398438 367.40625 C 226.375 360.582031 260.585938 352.949219 282.667969 349.914062 C 296.054688 348.066406 319.011719 347.96875 335.386719 349.675781 L 338.347656 350.007812 L 338.507812 346.5 C 338.585938 344.558594 338.71875 341.378906 338.800781 339.390625 L 338.960938 335.785156 L 332.347656 335.265625 C 308.851562 333.320312 282.90625 334.695312 261.066406 339.011719 C 241.652344 342.804688 216.667969 348.871094 203.894531 352.804688 L 197.519531 354.75 L 195.625 358.164062 C 193.414062 362.144531 191.679688 363.613281 188.640625 363.992188 C 186.507812 364.230469 184.667969 363.613281 182.347656 361.8125 L 180.800781 360.628906 L 177.945312 361.71875 C 169.171875 364.941406 155.945312 370.0625 142.027344 375.703125 C 133.359375 379.164062 119.492188 384.757812 111.199219 388.03125 C 102.90625 391.347656 91.464844 395.898438 85.734375 398.222656 C 56.1875 410.121094 51.226562 411.636719 40.265625 411.636719 C 31.625 411.6875 26.878906 410.265625 22.292969 406.1875 C 17.839844 402.203125 13.226562 389.59375 11.546875 376.652344 C 11.171875 373.761719 11.066406 371.058594 11.09375 365.273438 C 11.09375 358.730469 11.199219 356.929688 11.839844 352 C 13.148438 341.949219 14.585938 335.121094 17.652344 324.3125 C 19.28125 318.578125 20.480469 313.789062 20.398438 313.363281 C 19.972656 310.992188 16 310.140625 14.375 312.082031 Z M 14.375 312.082031 "/>
<path d="M 358 346.3125 C 357.894531 350.105469 357.867188 353.375 357.972656 353.515625 C 358.132812 353.800781 362.347656 355.035156 363.199219 355.082031 C 363.441406 355.082031 364.054688 353.753906 364.585938 352.09375 C 365.121094 350.484375 366.214844 347.496094 367.011719 345.457031 C 367.839844 343.464844 368.480469 341.808594 368.453125 341.808594 C 368.425781 341.808594 366.292969 341.285156 363.734375 340.621094 C 361.171875 339.957031 358.878906 339.4375 358.640625 339.4375 C 358.238281 339.4375 358.160156 340.386719 358 346.3125 Z M 358 346.3125 "/>
<path d="M 402.558594 353.707031 C 402.453125 354.703125 402.132812 362.097656 402.027344 366.222656 L 402 367.597656 L 408.265625 370.25 C 415.972656 373.523438 418.425781 374.753906 425.066406 378.40625 C 436.613281 384.757812 445.308594 391.015625 453.867188 399.074219 C 468.90625 413.296875 474.878906 419.082031 477.867188 422.164062 C 481.386719 425.859375 483.09375 427.046875 486.453125 428.277344 C 488.773438 429.132812 492.851562 429.273438 493.625 428.5625 C 494.347656 427.851562 494.933594 425.625 494.933594 423.585938 C 494.933594 419.980469 493.601562 417.089844 490.292969 413.582031 C 486.585938 409.648438 459.332031 384.046875 455.625 381.011719 C 445.011719 372.433594 428.71875 363.234375 410.933594 355.839844 C 402.292969 352.285156 402.71875 352.378906 402.558594 353.707031 Z M 402.558594 353.707031 "/>
<path d="M 279.867188 361.527344 C 278.851562 361.625 275.011719 361.90625 271.332031 362.191406 C 263.171875 362.808594 259.226562 363.378906 241.28125 366.695312 C 220.667969 370.488281 214.613281 372.054688 193.464844 379.070312 C 167.492188 387.648438 150.71875 394.003906 133.199219 401.871094 C 121.867188 406.945312 87.414062 424.390625 86.453125 425.578125 L 85.734375 426.429688 L 87.199219 426.570312 C 88.292969 426.667969 91.734375 425.480469 101.066406 421.6875 C 142.453125 404.953125 152.640625 401.257812 194.132812 387.839844 C 218.480469 379.96875 222.851562 378.832031 240.398438 375.703125 C 262.535156 371.769531 266.800781 371.199219 279.066406 370.488281 C 287.574219 369.96875 290.265625 369.113281 291.546875 366.554688 C 292.238281 365.179688 291.761719 363.804688 290.1875 362.523438 C 289.121094 361.671875 288.375 361.527344 285.332031 361.433594 C 283.359375 361.433594 280.90625 361.433594 279.867188 361.527344 Z M 279.867188 361.527344 "/>
</g>
</svg>